<svg width="646" height="478" viewBox="0 0 646 478" fill="none" xmlns="http://www.w3.org/2000/svg">
<g clip-path="url(#clip0_19_109)">
<path d="M552.851 215.633H570.14V233.816H552.851V215.633Z" fill="#ED9DA0"/>
<path d="M599.773 468.411H589.679L584.876 434.019H599.775L599.773 468.411Z" fill="#ED9DA0"/>
<path d="M561.078 468.411H550.985L546.182 434.019H561.08L561.078 468.411Z" fill="#ED9DA0"/>
<path d="M141.077 475.783V211.827C141.077 210.201 141.808 208.642 143.11 207.493C144.411 206.343 146.176 205.697 148.016 205.697H178.98C180.82 205.697 182.585 206.343 183.886 207.493C185.188 208.642 185.919 210.201 185.919 211.827V476.471L141.077 475.783Z" fill="#3F3D56"/>
<path d="M243.347 476.61V266.729C243.347 265.924 243.526 265.127 243.875 264.383C244.224 263.64 244.735 262.964 245.379 262.395C246.023 261.826 246.788 261.374 247.63 261.066C248.472 260.758 249.374 260.599 250.286 260.599H281.249C283.089 260.599 284.854 261.245 286.156 262.395C287.457 263.544 288.188 265.104 288.188 266.729V476.157L243.347 476.61Z" fill="#3F3D56"/>
<path d="M61.622 227.254C61.1661 227.254 60.7199 227.138 60.3374 226.919C59.955 226.699 59.6525 226.387 59.4668 226.019C59.281 225.651 59.2198 225.244 59.2906 224.846C59.3614 224.448 59.5611 224.077 59.8657 223.777L163.397 121.762L265.287 172.307L367.783 16.2881L472.199 92.21C472.672 92.5642 472.968 93.0686 473.023 93.6142C473.078 94.1597 472.888 94.7026 472.494 95.1255C472.1 95.5484 471.534 95.8173 470.917 95.8741C470.3 95.931 469.683 95.7712 469.199 95.4294L369.076 22.6284L267.034 177.956L164.385 127.035L63.3799 226.559C63.1589 226.778 62.888 226.953 62.5851 227.073C62.2821 227.193 61.9539 227.254 61.622 227.254Z" fill="#3F3D56"/>
<path d="M61.2286 244.629C73.3938 244.629 83.2556 235.917 83.2556 225.17C83.2556 214.423 73.3938 205.711 61.2286 205.711C49.0635 205.711 39.2017 214.423 39.2017 225.17C39.2017 235.917 49.0635 244.629 61.2286 244.629Z" fill="white"/>
<path d="M163.498 143.858C175.663 143.858 185.525 135.146 185.525 124.4C185.525 113.653 175.663 104.941 163.498 104.941C151.333 104.941 141.471 113.653 141.471 124.4C141.471 135.146 151.333 143.858 163.498 143.858Z" fill="#E6E6E6"/>
<path d="M265.767 194.591C277.932 194.591 287.794 185.879 287.794 175.132C287.794 164.385 277.932 155.673 265.767 155.673C253.602 155.673 243.74 164.385 243.74 175.132C243.74 185.879 253.602 194.591 265.767 194.591Z" fill="#E6E6E6"/>
<path d="M368.036 38.9179C380.201 38.9179 390.063 30.2058 390.063 19.459C390.063 8.71207 380.201 0 368.036 0C355.871 0 346.009 8.71207 346.009 19.459C346.009 30.2058 355.871 38.9179 368.036 38.9179Z" fill="white"/>
<path d="M563.453 170.804C576.184 170.804 586.504 161.687 586.504 150.44C586.504 139.193 576.184 130.076 563.453 130.076C550.721 130.076 540.401 139.193 540.401 150.44C540.401 161.687 550.721 170.804 563.453 170.804Z" fill="white"/>
<path d="M560.201 308.476C568.829 309.394 590.892 302.441 592.088 313.019C603.444 342.552 603.107 455.757 603.107 455.757L585.818 456.484C585.818 456.484 572.002 366.536 565.469 347.292C562.19 370.682 562.765 460.121 562.765 460.121L547.123 460.848C547.123 460.848 533.092 384.687 533.012 362.333C531.307 345.959 535.49 321.695 533.699 305.865C542.254 308.261 551.259 309.148 560.201 308.476Z" fill="#090814"/>
<path d="M447.885 475.674V171.449C447.885 167.548 450.991 164.387 454.824 164.387H485.787C489.619 164.387 492.726 167.55 492.726 171.449V476.471L447.885 475.674Z" fill="#3F3D56"/>
<path d="M530.854 222.801C527.393 216.551 523.167 210.656 518.249 205.222C517.222 204.161 516.287 203.033 515.451 201.847C513.681 199.137 513.153 195.949 512.034 192.982C508.906 184.661 501.101 177.978 499.199 169.373C498.507 166.246 492.665 175.335 494.201 179.213C496.947 186.232 497.296 193.664 500.787 200.443C504.278 207.222 508.378 213.724 511.391 220.655C513.104 224.59 514.47 228.655 516.982 232.292C519.493 235.929 523.412 238.976 528.145 239.521C528.113 236.885 528.567 234.261 529.487 231.753C530.516 228.889 532.344 225.514 530.854 222.801Z" fill="#ED9DA0"/>
<path d="M582.647 227.513C582.435 222.371 583.344 217.24 585.323 212.4C586.08 210.545 586.969 208.661 586.895 206.693C586.788 204.861 585.8 203.181 584.903 201.522C581.807 195.815 579.634 189.762 577.493 183.725L573.375 172.343C572.033 171.473 579.871 171.172 581.542 173.216C587.009 179.922 591.151 187.626 595.48 194.948C596.585 196.693 597.527 198.515 598.296 200.395C599.354 203.442 599.854 206.619 599.778 209.806C599.778 215.763 598.89 221.698 597.967 227.603C597.382 231.305 596.616 235.334 593.445 237.786C590.155 234.059 586.845 230.422 582.647 227.513Z" fill="#ED9DA0"/>
<path d="M560.88 223.325C570.315 223.325 577.963 216.568 577.963 208.233C577.963 199.898 570.315 193.141 560.88 193.141C551.445 193.141 543.796 199.898 543.796 208.233C543.796 216.568 551.445 223.325 560.88 223.325Z" fill="#ED9DA0"/>
<path d="M546.988 193.174C546.796 192.715 546.752 192.218 546.863 191.739C546.973 191.26 547.233 190.818 547.613 190.463C548.04 190.166 548.607 190.055 549.067 189.772C549.717 189.289 550.249 188.694 550.631 188.024C551.798 186.581 553.506 185.55 555.451 185.114C557.396 184.678 559.454 184.864 561.259 185.641C564.085 186.946 565.786 189.56 568.297 191.32C569.572 192.231 571.049 192.908 572.334 193.821C574.903 195.781 576.729 198.39 577.566 201.296C578.4 204.182 578.887 207.138 579.019 210.114C579.153 211.007 579.114 211.914 578.902 212.795C578.643 213.534 578.255 214.233 577.753 214.867C575.169 218.322 571.771 221.458 567.509 223.241C563.247 225.024 558.061 225.313 553.862 223.448C553.438 223.298 553.073 223.041 552.812 222.709C552.574 222.205 552.518 221.648 552.651 221.114C552.879 219.002 552.406 216.878 551.29 214.999C550.507 213.618 549.334 212.431 548.706 211C548.124 209.399 547.875 207.719 547.97 206.04C547.891 201.695 548.225 197.363 546.988 193.174Z" fill="#090814"/>
<path d="M38.8076 476.087V329.212C38.8076 327.329 41.9141 325.802 45.7465 325.802H76.7101C80.5416 325.802 83.6489 327.33 83.6489 329.212V476.471L38.8076 476.087Z" fill="white"/>
<path d="M645.214 478H0.786504C0.57791 478 0.377861 477.927 0.230362 477.796C0.0828639 477.666 0 477.489 0 477.305C0 477.121 0.0828639 476.944 0.230362 476.814C0.377861 476.684 0.57791 476.61 0.786504 476.61H645.213C645.422 476.61 645.622 476.684 645.77 476.814C645.917 476.944 646 477.121 646 477.305C646 477.489 645.917 477.666 645.77 477.796C645.622 477.927 645.423 478 645.214 478Z" fill="#E6E6E6"/>
<path d="M345.615 475.569V130.331C345.615 125.903 348.721 122.314 352.554 122.314H383.517C387.349 122.314 390.456 125.903 390.456 130.331V476.471L345.615 475.569Z" fill="white"/>
<path d="M493.724 177.351C497.816 177.351 501.134 174.421 501.134 170.806C501.134 167.19 497.816 164.26 493.724 164.26C489.632 164.26 486.314 167.19 486.314 170.806C486.314 174.421 489.632 177.351 493.724 177.351Z" fill="#ED9DA0"/>
<path d="M576.053 174.442C580.145 174.442 583.462 171.512 583.462 167.896C583.462 164.281 580.145 161.351 576.053 161.351C571.96 161.351 568.643 164.281 568.643 167.896C568.643 171.512 571.96 174.442 576.053 174.442Z" fill="#ED9DA0"/>
<path d="M594.059 248.925C594.785 248.34 600.676 217.888 600.641 217.202C600.55 213.45 587.592 209.165 584.999 210.656C582.552 212.063 578.292 228.204 575.551 231.141L572.651 226.656H549.598L548.201 228.948C545.176 227.338 542.455 225.855 541.485 225.363C541.151 225.163 540.788 225.005 540.405 224.894C538.009 224.42 535.76 223.486 533.819 222.159C531.925 220.875 523.137 207.392 520.783 207.749C518.124 208.142 509.155 214.993 509.256 221.567C510.387 221.546 525.075 247.494 525.281 248.461C526.412 252.548 530.134 312.158 531.338 314.937C536.875 314.464 532.504 313.62 537.863 314.937C543.634 316.355 549.727 314.82 555.679 314.253C558.157 314.036 560.647 313.939 563.138 313.962C572.194 313.998 585.12 314.442 593.887 316.427C593.937 311.351 588.89 300.368 587.024 295.576C586.779 294.144 586.787 292.686 587.049 291.256C587.283 289.501 592.104 250.863 594.059 248.925Z" fill="#E6E6E6"/>
<path d="M549.793 463.446C549.793 463.446 539.462 469.819 533.255 469.545C527.049 469.271 526.118 475.509 533.255 476.331C540.393 477.154 559.252 477.428 561.114 476.331C562.976 475.235 562.355 463.721 561.114 463.447C559.873 463.173 549.793 463.446 549.793 463.446Z" fill="#090814"/>
<path d="M589.404 463.446C589.404 463.446 579.073 469.819 572.866 469.545C566.66 469.271 565.729 475.509 572.866 476.331C580.004 477.154 598.863 477.428 600.725 476.331C602.587 475.235 601.966 463.721 600.725 463.447C599.484 463.173 589.404 463.446 589.404 463.446Z" fill="#090814"/>
</g>
<defs>
<clipPath id="clip0_19_109">
<rect width="646" height="478" fill="white"/>
</clipPath>
</defs>
</svg>
