<svg width="646" height="476" viewBox="0 0 646 476" fill="none" xmlns="http://www.w3.org/2000/svg">
<g clip-path="url(#clip0_19_74)">
<path d="M552.851 214.731H570.14V232.837H552.851V214.731Z" fill="#ED9DA0"/>
<path d="M599.773 466.451H589.679L584.876 432.203H599.775L599.773 466.451Z" fill="#ED9DA0"/>
<path d="M561.078 466.451H550.985L546.182 432.203H561.08L561.078 466.451Z" fill="#ED9DA0"/>
<path d="M141.078 473.792V210.941C141.078 209.322 141.809 207.769 143.11 206.625C144.411 205.48 146.176 204.837 148.016 204.837H178.98C180.82 204.837 182.585 205.48 183.886 206.625C185.188 207.769 185.919 209.322 185.919 210.941V474.477L141.078 473.792Z" fill="#3F3D56"/>
<path d="M243.347 474.615V265.613C243.347 264.812 243.526 264.018 243.875 263.277C244.223 262.537 244.735 261.864 245.379 261.297C246.023 260.73 246.788 260.28 247.63 259.974C248.472 259.667 249.374 259.509 250.285 259.509H281.249C283.089 259.509 284.854 260.152 286.155 261.297C287.457 262.442 288.188 263.994 288.188 265.613V474.165L243.347 474.615Z" fill="#3F3D56"/>
<path d="M61.6219 226.303C61.166 226.303 60.7198 226.187 60.3373 225.969C59.9548 225.751 59.6524 225.44 59.4666 225.074C59.2809 224.707 59.2197 224.302 59.2905 223.905C59.3613 223.509 59.561 223.139 59.8656 222.841L163.397 121.253L265.287 171.586L367.783 16.2199L472.199 91.8242C472.671 92.177 472.967 92.6792 473.023 93.2225C473.078 93.7658 472.888 94.3064 472.494 94.7275C472.1 95.1486 471.534 95.4164 470.917 95.473C470.3 95.5296 469.683 95.3705 469.199 95.0301L369.076 22.5337L267.034 177.211L164.385 126.503L63.3798 225.611C63.1588 225.829 62.8879 226.004 62.585 226.123C62.282 226.242 61.9538 226.304 61.6219 226.303Z" fill="#3F3D56"/>
<path d="M61.2287 243.605C73.3939 243.605 83.2557 234.93 83.2557 224.228C83.2557 213.526 73.3939 204.85 61.2287 204.85C49.0635 204.85 39.2017 213.526 39.2017 224.228C39.2017 234.93 49.0635 243.605 61.2287 243.605Z" fill="#020025"/>
<path d="M163.498 143.257C175.663 143.257 185.525 134.581 185.525 123.879C185.525 113.177 175.663 104.501 163.498 104.501C151.333 104.501 141.471 113.177 141.471 123.879C141.471 134.581 151.333 143.257 163.498 143.257Z" fill="#E6E6E6"/>
<path d="M265.767 193.777C277.932 193.777 287.794 185.101 287.794 174.399C287.794 163.697 277.932 155.022 265.767 155.022C253.602 155.022 243.74 163.697 243.74 174.399C243.74 185.101 253.602 193.777 265.767 193.777Z" fill="#E6E6E6"/>
<path d="M368.036 38.7551C380.201 38.7551 390.063 30.0795 390.063 19.3775C390.063 8.67562 380.201 0 368.036 0C355.871 0 346.009 8.67562 346.009 19.3775C346.009 30.0795 355.871 38.7551 368.036 38.7551Z" fill="#020025"/>
<path d="M563.453 170.089C576.184 170.089 586.504 161.01 586.504 149.81C586.504 138.611 576.184 129.531 563.453 129.531C550.721 129.531 540.401 138.611 540.401 149.81C540.401 161.01 550.721 170.089 563.453 170.089Z" fill="#020025"/>
<path d="M560.201 307.186C568.829 308.1 590.892 301.176 592.088 311.709C603.444 341.119 603.107 453.85 603.107 453.85L585.818 454.574C585.818 454.574 572.002 365.002 565.469 345.839C562.19 369.131 562.765 458.196 562.765 458.196L547.123 458.92C547.123 458.92 533.092 383.078 533.012 360.817C531.307 344.511 535.49 320.349 533.699 304.586C542.254 306.971 551.259 307.854 560.201 307.186Z" fill="#090814"/>
<path d="M447.885 473.684V170.732C447.885 166.847 450.991 163.699 454.824 163.699H485.787C489.619 163.699 492.726 166.849 492.726 170.732V474.477L447.885 473.684Z" fill="#3F3D56"/>
<path d="M530.854 221.869C527.393 215.645 523.167 209.775 518.249 204.364C517.222 203.307 516.287 202.183 515.451 201.003C513.681 198.303 513.153 195.129 512.034 192.174C508.906 183.888 501.101 177.233 499.199 168.664C498.507 165.55 492.665 174.602 494.201 178.463C496.947 185.453 497.296 192.854 500.787 199.605C504.278 206.355 508.378 212.83 511.391 219.732C513.104 223.65 514.47 227.699 516.982 231.32C519.493 234.942 523.412 237.976 528.145 238.519C528.113 235.894 528.567 233.281 529.487 230.784C530.516 227.931 532.344 224.57 530.854 221.869Z" fill="#ED9DA0"/>
<path d="M582.647 226.561C582.435 221.44 583.344 216.331 585.323 211.511C586.08 209.664 586.969 207.788 586.895 205.828C586.788 204.003 585.8 202.33 584.903 200.679C581.807 194.996 579.634 188.968 577.493 182.956L573.375 171.622C572.033 170.756 579.871 170.456 581.542 172.491C587.009 179.169 591.151 186.841 595.48 194.132C596.585 195.87 597.527 197.684 598.296 199.556C599.354 202.591 599.854 205.755 599.778 208.928C599.778 214.86 598.89 220.77 597.967 226.651C597.382 230.338 596.616 234.35 593.445 236.791C590.155 233.08 586.845 229.458 582.647 226.561Z" fill="#ED9DA0"/>
<path d="M560.88 222.391C570.315 222.391 577.963 215.662 577.963 207.362C577.963 199.062 570.315 192.333 560.88 192.333C551.445 192.333 543.796 199.062 543.796 207.362C543.796 215.662 551.445 222.391 560.88 222.391Z" fill="#ED9DA0"/>
<path d="M546.988 192.365C546.796 191.909 546.752 191.414 546.863 190.937C546.973 190.46 547.233 190.02 547.613 189.666C548.04 189.37 548.607 189.26 549.067 188.978C549.717 188.497 550.249 187.905 550.631 187.237C551.798 185.801 553.506 184.774 555.451 184.339C557.396 183.905 559.454 184.091 561.259 184.864C564.085 186.164 565.786 188.767 568.297 190.519C569.572 191.427 571.049 192.101 572.334 193.01C574.903 194.962 576.729 197.56 577.566 200.454C578.4 203.328 578.887 206.271 579.019 209.235C579.153 210.124 579.114 211.027 578.902 211.905C578.643 212.641 578.255 213.337 577.753 213.968C575.169 217.408 571.771 220.532 567.509 222.307C563.247 224.082 558.061 224.37 553.862 222.514C553.438 222.364 553.073 222.108 552.812 221.778C552.574 221.275 552.518 220.72 552.651 220.188C552.879 218.086 552.406 215.97 551.29 214.1C550.507 212.724 549.334 211.543 548.706 210.117C548.124 208.523 547.875 206.85 547.97 205.178C547.891 200.851 548.225 196.537 546.988 192.365Z" fill="#090814"/>
<path d="M38.8077 474.095V327.835C38.8077 325.959 41.9141 324.438 45.7465 324.438H76.7101C80.5417 324.438 83.649 325.961 83.649 327.835V474.477L38.8077 474.095Z" fill="#020025"/>
<path d="M645.214 476H0.786504C0.57791 476 0.377861 475.927 0.230362 475.797C0.0828639 475.668 0 475.492 0 475.308C0 475.125 0.0828639 474.949 0.230362 474.819C0.377861 474.689 0.57791 474.616 0.786504 474.616H645.213C645.422 474.616 645.622 474.689 645.77 474.819C645.917 474.949 646 475.125 646 475.308C646 475.492 645.917 475.668 645.77 475.797C645.622 475.927 645.423 476 645.214 476Z" fill="#E6E6E6"/>
<path d="M345.615 473.579V129.786C345.615 125.376 348.721 121.802 352.554 121.802H383.517C387.349 121.802 390.456 125.376 390.456 129.786V474.477L345.615 473.579Z" fill="#020025"/>
<path d="M493.724 176.609C497.816 176.609 501.134 173.691 501.134 170.091C501.134 166.491 497.816 163.573 493.724 163.573C489.632 163.573 486.314 166.491 486.314 170.091C486.314 173.691 489.632 176.609 493.724 176.609Z" fill="#ED9DA0"/>
<path d="M576.053 173.712C580.145 173.712 583.462 170.794 583.462 167.194C583.462 163.594 580.145 160.676 576.053 160.676C571.961 160.676 568.643 163.594 568.643 167.194C568.643 170.794 571.961 173.712 576.053 173.712Z" fill="#ED9DA0"/>
<path d="M594.058 247.883C594.785 247.301 600.676 216.976 600.641 216.293C600.55 212.557 587.592 208.29 584.999 209.774C582.552 211.175 578.292 227.25 575.551 230.173L572.651 225.708H549.597L548.2 227.991C545.176 226.387 542.455 224.91 541.484 224.42C541.151 224.221 540.788 224.064 540.405 223.953C538.009 223.481 535.76 222.551 533.819 221.229C531.925 219.951 523.137 206.524 520.783 206.88C518.123 207.271 509.155 214.093 509.256 220.64C510.387 220.619 525.074 246.458 525.281 247.421C526.412 251.492 530.133 310.852 531.337 313.619C536.874 313.148 532.503 312.308 537.863 313.619C543.634 315.031 549.727 313.503 555.679 312.938C558.157 312.722 560.647 312.626 563.138 312.648C572.194 312.685 585.119 313.127 593.887 315.104C593.936 310.049 588.89 299.112 587.023 294.339C586.779 292.913 586.787 291.462 587.049 290.037C587.283 288.29 592.103 249.814 594.058 247.883Z" fill="#E6E6E6"/>
<path d="M549.793 461.507C549.793 461.507 539.462 467.853 533.255 467.58C527.049 467.307 526.118 473.519 533.255 474.338C540.393 475.157 559.252 475.43 561.114 474.338C562.976 473.247 562.355 461.78 561.114 461.508C559.873 461.235 549.793 461.507 549.793 461.507Z" fill="#090814"/>
<path d="M589.404 461.507C589.404 461.507 579.073 467.853 572.866 467.58C566.66 467.307 565.729 473.519 572.866 474.338C580.004 475.157 598.863 475.43 600.725 474.338C602.587 473.247 601.966 461.78 600.725 461.508C599.484 461.235 589.404 461.507 589.404 461.507Z" fill="#090814"/>
</g>
<defs>
<clipPath id="clip0_19_74">
<rect width="646" height="476" fill="white"/>
</clipPath>
</defs>
</svg>
